HIERARCHY
ROOT Hips
{
	OFFSET 0.000000 0.000000 0.000000 
	CHANNELS 6 Xposition Yposition Zposition Zrotation Yrotation Xrotation
	JOINT LeftUpLeg
	{
		OFFSET 1.363060 -1.794630 0.839290 
		CHANNELS 3 Zrotation Yrotation Xrotation
		JOINT LeftLeg
		{
			OFFSET 2.448110 -6.726130 0.000000 
			CHANNELS 3 Zrotation Yrotation Xrotation
			JOINT LeftFoot
			{
				OFFSET 2.562200 -7.039590 0.000000 
				CHANNELS 3 Zrotation Yrotation Xrotation
				JOINT LeftToeBase
				{
					OFFSET 0.157640 -0.433110 2.322550 
					CHANNELS 3 Zrotation Yrotation Xrotation
					End Site
					{
						OFFSET 0.000000 0.000000 0.000000 
					}
				}
			}
		}
	}
	JOINT RightUpLeg
	{
		OFFSET -1.305520 -1.794630 0.839290 
		CHANNELS 3 Zrotation Yrotation Xrotation
		JOINT RightLeg
		{
			OFFSET -2.542530 -6.985550 0.000000 
			CHANNELS 3 Zrotation Yrotation Xrotation
			JOINT RightFoot
			{
				OFFSET -2.568260 -7.056230 0.000000 
				CHANNELS 3 Zrotation Yrotation Xrotation
				JOINT RightToeBase
				{
					OFFSET -0.164730 -0.452590 2.363150 
					CHANNELS 3 Zrotation Yrotation Xrotation
					End Site
					{
						OFFSET 0.000000 0.000000 0.000000 
					}
				}
			}
		}
	}
	JOINT Spine
	{
		OFFSET 0.028270 2.035590 -0.193380 
		CHANNELS 3 Zrotation Yrotation Xrotation
		JOINT Spine1
		{
			OFFSET 0.056720 2.048850 -0.042750 
			CHANNELS 3 Zrotation Yrotation Xrotation
			JOINT Neck1
			{
				OFFSET -0.054170 1.746240 0.172020 
				CHANNELS 3 Zrotation Yrotation Xrotation
				JOINT Head
				{
					OFFSET 0.104070 1.761360 -0.123970 
					CHANNELS 3 Zrotation Yrotation Xrotation
					End Site
					{
						OFFSET 0.000000 0.000000 0.000000 
					}
				}
			}
			JOINT LeftArm
			{
				OFFSET 3.362410 1.200890 -0.311210 
				CHANNELS 3 Zrotation Yrotation Xrotation
				JOINT LeftForeArm
				{
					OFFSET 4.983000 -0.000000 -0.000000 
					CHANNELS 3 Zrotation Yrotation Xrotation
					JOINT LeftHand
					{
						OFFSET 3.483560 -0.000000 -0.000000 
						CHANNELS 3 Zrotation Yrotation Xrotation
						JOINT LeftHandIndex1
						{
							OFFSET 0.715260 -0.000000 -0.000000 
							CHANNELS 3 Zrotation Yrotation Xrotation
							End Site
							{
								OFFSET 0.000000 0.000000 0.000000 
							}
						}
					}
				}
			}
			JOINT RightArm
			{
				OFFSET -3.136600 1.374050 -0.404650 
				CHANNELS 3 Zrotation Yrotation Xrotation
				JOINT RightForeArm
				{
					OFFSET -5.241900 -0.000000 -0.000000 
					CHANNELS 3 Zrotation Yrotation Xrotation
					JOINT RightHand
					{
						OFFSET -3.444170 -0.000000 -0.000000 
						CHANNELS 3 Zrotation Yrotation Xrotation
						JOINT RightHandIndex1
						{
							OFFSET -0.622530 -0.000000 -0.000000 
							CHANNELS 3 Zrotation Yrotation Xrotation
							End Site
							{
								OFFSET 0.000000 0.000000 0.000000 
							}
						}
					}
				}
			}
		}
	}
}
MOTION
Frames: 18
Frame Time: 0.041667
-12.724024 19.017161 -33.462776 -2.658019 -72.471638 -4.616356 -12.150848 -0.039848 -8.311090 5.704904 15.046783 48.313884 2.045011 -4.057365 24.373400 2.695700 -10.185400 -29.579200 8.851955 -3.516513 -10.948613 -3.193937 -11.983527 37.016137 -0.455301 1.502474 4.321538 -3.442600 11.379200 -33.569500 -0.244905 2.406692 -1.202173 -1.699966 1.015048 -0.933933 -0.157785 15.912827 18.326686 -1.719200 7.365100 13.291900 25.009714 -8.724457 -54.864213 10.898609 -19.431230 -3.070309 -0.880389 -4.393672 -14.408138 -7.125000 0.000000 0.000000 -38.344598 -0.911830 -60.863938 -16.667831 27.341306 -7.008612 -3.318762 2.829918 -14.890835 7.125000 0.000000 0.000000 
-12.687908 18.955203 -33.741535 -2.798663 -72.066698 -4.879988 -13.518846 -0.384281 -7.098946 5.288342 14.758679 47.401886 2.692277 -5.943363 29.319278 1.430900 -7.563500 -21.395900 7.795558 -3.544402 -10.859725 -3.755646 -12.588853 39.107227 -0.055985 -0.669123 3.086368 -2.981300 10.664800 -31.157500 -0.203291 2.341636 -1.247428 -1.692842 0.995460 -1.411733 -0.249708 16.573405 18.332440 -1.690900 7.647000 13.448600 28.019107 -9.335848 -58.079278 10.978638 -19.765627 -2.979165 -1.019786 -4.180431 -14.457184 -7.125000 0.000000 0.000000 -39.028674 -0.526299 -61.997046 -16.291753 27.004443 -6.707398 -3.673761 2.907930 -18.270663 7.125000 0.000000 0.000000 
-12.698387 18.859367 -33.974410 -2.931301 -72.155245 -5.069941 -15.287327 -1.267473 -5.333350 4.762776 14.324829 45.790274 2.972668 -6.574673 31.573229 1.479300 -7.684800 -21.760800 6.434728 -3.179434 -10.681861 -4.294018 -13.137802 41.045424 0.247563 -2.247010 2.297474 -3.032600 10.747600 -31.433300 -0.174022 2.663340 -1.213276 -1.982759 1.184944 -1.387435 -0.405800 16.885173 18.382975 -1.794200 7.796200 13.576300 31.089631 -10.109779 -60.017010 11.538175 -20.743981 -3.101925 -0.956913 -3.917241 -16.168033 -7.125000 0.000000 0.000000 -39.552537 0.023485 -63.253033 -16.283721 27.051594 -6.574058 -3.962178 3.054306 -21.012363 7.125000 0.000000 0.000000 
-12.695131 18.734536 -34.240961 -2.825662 -71.342814 -5.102504 -16.609871 -2.560441 -3.987739 4.260141 13.884155 44.104139 2.999900 -6.827748 31.555490 1.279900 -7.169600 -20.218700 5.045093 -2.791240 -10.756994 -4.772865 -13.599761 42.699376 0.514712 -3.595346 1.492754 -1.876900 8.604800 -24.566800 -0.097156 2.511667 -1.251722 -1.702754 1.123021 -1.591695 -0.289842 17.128929 18.121111 -1.728400 7.912300 13.474100 34.128776 -10.544685 -61.729825 12.412795 -22.047111 -3.375014 -0.848212 -3.672129 -17.535655 -7.125000 0.000000 0.000000 -39.963241 0.951370 -65.209144 -16.569049 27.446613 -6.584105 -4.082513 3.257989 -22.689214 7.125000 0.000000 0.000000 
-12.684143 18.555377 -34.515854 -4.107699 -70.353758 -3.770474 -17.241490 -3.917307 -2.881999 3.998732 13.611384 42.975741 2.573428 -6.128381 27.710787 0.930300 -6.144200 -17.203300 4.137189 -2.230488 -10.618294 -5.138383 -13.948344 43.939709 0.844629 -5.197275 0.903120 -0.450000 4.303700 -11.932800 0.079496 2.251994 -1.272753 -1.210683 0.989155 -1.758071 -0.302229 17.261375 17.764730 -1.743800 7.966100 13.349300 36.812414 -10.575112 -62.556222 13.790253 -23.864480 -3.913539 -0.619065 -3.469910 -19.217296 -7.125000 0.000000 0.000000 -40.490188 1.626506 -67.260181 -17.026356 28.000753 -6.667351 -4.128589 3.415384 -24.499809 7.125000 0.000000 0.000000 
-12.659320 18.358821 -34.798072 -6.172602 -69.166242 -1.535203 -17.391609 -5.441183 -1.258109 4.047722 13.595588 42.837420 1.944543 -5.687694 19.568064 1.109200 -6.691200 -18.803600 3.755700 -1.599215 -10.408665 -5.388272 -14.200966 44.716241 1.478151 -8.169440 0.563769 -0.491500 4.495100 -12.474000 0.332072 1.887590 -1.327659 -0.547317 0.785995 -2.027195 -0.308087 17.416780 17.317239 -1.769300 8.042000 13.175300 39.121435 -10.397143 -62.669969 15.667894 -26.149690 -4.725432 -0.441165 -3.242258 -20.630255 -7.125000 0.000000 0.000000 -41.091015 2.062477 -68.898037 -17.640860 28.687285 -6.825539 -4.108577 3.512467 -26.720337 7.125000 0.000000 0.000000 
-12.650367 18.164097 -35.076322 -7.595926 -67.975390 0.310792 -17.068291 -6.517854 -1.027386 4.278905 13.773327 43.317717 1.503537 -4.586650 12.722636 1.550500 -7.859200 -22.287200 3.277885 -0.572478 -10.035817 -5.486247 -14.283467 44.850583 2.010031 -10.673776 1.487904 -0.316600 3.617200 -10.002000 0.506931 1.650950 -1.381915 -0.065746 0.659482 -2.220104 0.680921 17.084675 16.250451 -1.241300 7.921400 12.193100 41.374110 -10.543956 -63.536838 18.317500 -29.231471 -6.014671 -0.314085 -2.855821 -20.816694 -7.125000 0.000000 0.000000 -41.343238 1.929593 -70.005635 -18.376480 29.396490 -7.073253 -4.107884 3.573449 -28.172205 7.125000 0.000000 0.000000 
-12.638158 17.980767 -35.352233 -8.820143 -66.667670 1.759585 -16.697655 -8.705071 -0.499183 4.580093 14.061312 44.205517 1.282616 -3.844967 7.069597 0.321300 -3.643400 -10.075500 2.791336 1.054800 -8.870167 -5.376620 -14.197708 44.388764 2.422151 -12.439830 0.953752 -0.070700 -1.715300 4.719600 0.673578 1.538900 -1.435273 0.264969 0.595094 -2.621873 0.909136 16.696897 15.434106 -1.195900 7.752400 11.744800 43.095186 -11.024800 -64.481644 21.786694 -32.937506 -7.936763 -0.196539 -2.526040 -20.277873 -7.125000 0.000000 0.000000 -41.305620 1.423719 -70.473920 -19.394545 30.318570 -7.494530 -4.084086 3.613837 -29.202246 7.125000 0.000000 0.000000 
-12.627578 17.770477 -35.642183 -10.131630 -65.600292 3.066252 -15.979762 -11.108285 0.109009 4.895021 14.373575 45.222647 1.449269 -4.273400 1.937571 0.900000 -6.046000 -16.917800 2.870502 2.585937 -7.440687 -5.168761 -13.991424 43.451311 2.686029 -13.891791 2.901974 -0.148600 -2.483700 6.844600 0.829700 1.576905 -1.485775 0.591037 0.608103 -3.172400 0.692052 16.443045 14.897926 -1.401600 7.630900 11.638600 44.468583 -11.416426 -65.259532 25.858454 -36.775471 -10.417813 -0.078965 -2.204130 -19.398105 -7.125000 0.000000 0.000000 -41.048255 1.290113 -71.321255 -20.632102 31.462830 -8.091726 -3.958479 3.691932 -29.457873 7.125000 0.000000 0.000000 
-12.607332 17.492532 -35.954718 -9.865172 -64.738623 2.848171 -15.592330 -13.369839 0.507168 5.240522 14.692951 46.309207 1.882673 -5.395433 -2.457403 1.017000 -6.415900 -17.996000 2.738967 4.113635 -5.663716 -4.855394 -13.701796 42.293613 2.804191 -14.419489 3.098749 -0.985400 6.318600 -17.711600 0.892474 1.593105 -1.552812 1.062910 0.626324 -3.826423 0.493163 16.457282 14.416038 -1.560500 7.636500 11.548400 45.641997 -11.543386 -65.777696 29.994491 -40.190696 -13.158433 0.077702 -1.929236 -18.171295 -7.125000 0.000000 0.000000 -40.696467 1.199326 -71.605802 -21.939504 32.638758 -8.762110 -3.862396 3.740921 -28.951948 7.125000 0.000000 0.000000 
-12.596243 17.250195 -36.268576 -9.971914 -63.968315 3.082183 -14.459078 -14.574014 0.150430 5.612931 15.000825 47.349792 2.575240 -7.249454 -6.165498 0.640000 -5.118000 -14.245500 2.820498 5.615987 -3.892424 -4.375206 -13.348180 41.265479 1.792246 -9.424173 -0.770395 -3.566000 11.559300 -34.190100 0.914829 1.648253 -1.598418 1.261279 0.665160 -4.319393 0.330050 16.693946 13.873497 -1.643800 7.737300 11.429000 47.041900 -11.532562 -66.821888 33.346313 -42.685014 -15.502414 0.205944 -1.691773 -15.444513 -7.125000 0.000000 0.000000 -40.200170 0.725902 -71.250315 -23.164290 33.652888 -9.400708 -3.892926 3.795726 -27.791364 7.125000 0.000000 0.000000 
-12.598481 17.060150 -36.571345 -10.173466 -63.259555 3.438855 -12.837254 -14.535397 -0.835883 5.967802 15.254928 48.150545 3.432566 -9.665454 -9.209877 0.004400 -0.429500 -1.180000 2.795486 6.123553 -2.647556 -4.066762 -13.034015 40.465730 -0.163797 -0.631070 -3.238787 -2.282600 9.431500 -27.154800 0.833798 1.740398 -1.666440 0.885107 0.737593 -4.756598 0.457035 16.739617 13.531855 -1.579700 7.765100 11.336600 48.637510 -11.588766 -67.906070 35.788852 -44.381260 -17.235879 0.280374 -1.473670 -12.162092 -7.125000 0.000000 0.000000 -39.922170 0.409648 -71.497513 -23.600448 33.935756 -9.579421 -3.882054 3.974781 -25.728249 7.125000 0.000000 0.000000 
-12.602245 16.889640 -36.864754 -9.622714 -62.690302 3.082150 -11.472647 -13.538052 -2.008165 6.187555 15.383628 48.424139 4.164754 -11.551899 -11.762459 0.131100 -2.333700 -6.428900 2.886547 5.807513 -2.111228 -3.901541 -12.813249 39.751833 -0.917610 2.566994 -5.435782 -2.738900 10.259900 -29.822600 0.708501 1.860388 -1.710430 0.508036 0.827593 -5.099491 0.592786 16.666151 13.106739 -1.465300 7.711400 11.095100 50.098425 -11.342589 -68.822388 36.962581 -45.187580 -18.048797 0.317754 -1.325934 -9.342275 -7.125000 0.000000 0.000000 -39.913827 0.268671 -72.223055 -23.573839 33.848288 -9.502676 -3.807230 4.179016 -23.253116 7.125000 0.000000 0.000000 
-12.617709 16.776712 -37.133136 -9.357894 -62.261512 2.810207 -10.240826 -12.437905 -2.761836 6.260355 15.414974 48.291827 4.632561 -12.407160 -13.709025 0.359400 -3.851400 -10.658900 3.074253 3.817706 -2.403227 -3.840594 -12.653443 39.274046 -1.388631 4.183555 -7.710063 -2.882500 10.502300 -30.619200 0.656355 2.164428 -1.767933 0.354537 0.997388 -5.528401 0.782423 16.502152 12.596766 -1.318300 7.620500 10.635500 51.112131 -11.291894 -69.673741 37.195972 -45.403544 -18.184769 0.326319 -1.265770 -7.988553 -7.125000 0.000000 0.000000 -40.436830 0.220694 -72.543811 -23.466433 33.726640 -9.339457 -3.660518 4.384071 -20.747416 7.125000 0.000000 0.000000 
-12.649553 16.818729 -37.352379 -9.267045 -61.632884 2.822565 -10.571485 -15.564856 -1.122574 5.927013 15.233875 47.423718 4.198739 -9.703794 -15.198391 0.298600 -3.513600 -9.712000 3.473963 -0.074158 -3.718129 -3.741675 -12.461384 38.697524 -1.120713 2.039760 -9.934582 -4.900900 13.271400 -40.393000 0.604077 2.361581 -1.905412 0.095141 1.112534 -6.087392 0.916964 16.317572 12.216565 -1.236200 7.537400 10.243000 51.760439 -11.294985 -70.111476 37.182200 -45.455597 -18.146422 0.334236 -1.288508 -9.163662 -7.125000 0.000000 0.000000 -40.870607 0.385145 -72.077735 -23.457164 33.690538 -9.245990 -3.394712 4.523192 -19.382735 7.125000 0.000000 0.000000 
-12.675292 16.873056 -37.584237 -8.862157 -60.867427 2.510574 -9.753168 -16.394974 -1.045277 5.536430 14.981054 46.261874 3.911214 -8.897943 -14.075771 0.541200 -4.713500 -13.093200 3.948413 -3.068693 -4.608584 -3.625078 -12.223111 38.006423 -1.073739 1.678088 -10.282165 -4.551100 12.859700 -38.845700 0.486735 2.406852 -1.942424 -0.290026 1.145292 -6.271725 1.256912 16.148414 12.128224 -1.073000 7.480800 10.228900 52.400957 -11.063248 -70.817965 37.114791 -45.477263 -18.082915 0.349090 -1.360350 -11.258067 -7.125000 0.000000 0.000000 -40.850710 0.316638 -71.396294 -23.697771 33.843233 -9.355870 -3.144710 4.609988 -18.008423 7.125000 0.000000 0.000000 
-12.716191 17.003381 -37.802870 -8.598657 -60.122482 2.394499 -8.992111 -17.795365 -0.433849 4.936819 14.565619 44.441229 3.470965 -7.644849 -12.541084 0.922900 -6.120600 -17.134700 4.665307 -5.035427 -4.982327 -3.353297 -11.861308 36.821920 -0.744562 0.473260 -9.419755 -4.970500 13.350500 -40.695000 0.415835 2.473980 -1.950179 -0.413452 1.182232 -6.243259 1.472592 16.006379 12.052787 -1.051800 7.462200 10.301600 52.778362 -10.777723 -71.707910 37.454647 -45.746330 -18.368574 0.368742 -1.536129 -15.110586 -7.125000 0.000000 0.000000 -40.894199 0.414398 -70.801925 -23.805302 33.922773 -9.422012 -2.714161 4.615216 -17.189854 7.125000 0.000000 0.000000 
-12.770925 17.199123 -37.995763 -8.109918 -59.579704 2.055761 -8.551347 -19.253416 0.599179 4.261960 14.059781 42.311436 3.087796 -6.812991 -10.444280 0.985800 -6.319700 -17.715000 5.144710 -5.330486 -4.461287 -3.004240 -11.417961 35.317847 -0.662424 0.605779 -7.721994 -5.052500 13.442700 -41.049100 0.305804 2.664278 -1.987868 -0.653857 1.274855 -6.174717 1.988623 15.615614 12.325720 -0.908900 7.357800 10.459300 52.665813 -10.917901 -71.592995 35.731166 -44.669723 -17.052803 0.317583 -1.454320 -12.411847 -7.125000 0.000000 0.000000 -40.772628 0.445872 -69.659965 -23.720979 33.861369 -9.489021 -2.205859 4.594883 -16.863484 7.125000 0.000000 0.000000 
